<?xml version="1.0" encoding="UTF-8" standalone="no"?><!-- Generator: Gravit.io --><svg xmlns="http://www.w3.org/2000/svg" xmlns:xlink="http://www.w3.org/1999/xlink" style="isolation:isolate" viewBox="0 0 48 48" width="48pt" height="48pt"><path d=" M 12.912 7 C 11.032 7 9.5 8.532 9.5 10.412 L 9.5 32.588 L 12.912 32.588 L 12.912 10.412 L 29.971 10.412 L 29.971 7 L 12.912 7 Z  M 19.735 13.824 C 17.855 13.824 16.324 15.355 16.324 17.235 L 16.324 37.706 C 16.324 39.586 17.855 41.118 19.735 41.118 L 35.088 41.118 C 36.968 41.118 38.5 39.586 38.5 37.706 L 38.5 17.235 C 38.5 15.355 36.968 13.824 35.088 13.824 L 19.735 13.824 Z  M 19.735 17.235 L 35.088 17.235 L 35.088 37.706 L 19.735 37.706 L 19.735 17.235 Z " fill="rgb(0,0,0)"/></svg>