<?xml version="1.0" encoding="UTF-8" standalone="no"?><!-- Generator: Gravit.io --><svg xmlns="http://www.w3.org/2000/svg" xmlns:xlink="http://www.w3.org/1999/xlink" style="isolation:isolate" viewBox="0 0 48 48" width="48pt" height="48pt"><path d=" M 29.913 7.333 C 29.913 7.333 24.369 8.656 22.686 14.024 C 22.686 14.024 19.596 26.312 18.456 31.557 C 17.23 37.219 18.225 40.227 21.66 40.632 C 24.314 40.946 26.151 39.143 26.546 35.828 C 26.941 32.507 25.586 30.309 22.933 29.996 C 22.552 29.95 21.942 29.72 22.234 28.847 C 23.373 25.429 25.033 25.706 26.504 20.841 L 29.913 7.333 Z  M 12.339 20.144 C 8.992 20.144 7 21.739 7 24.415 C 7 27.873 9.818 29.238 15.583 28.685 C 16.229 28.623 16.809 28.525 17.635 28.438 C 17.866 27.437 18.108 26.349 18.375 25.235 C 17.615 25.317 17.677 24.773 17.677 24.415 C 17.677 21.739 15.68 20.144 12.339 20.144 Z  M 41 20.144 L 28.105 22.032 C 27.585 23.552 26.852 24.989 25.929 26.303 C 25.636 26.729 25.364 27.135 25.108 27.617 C 29.933 27.037 33.525 26.549 33.525 26.549 C 39.053 25.508 40.999 20.144 40.999 20.144 L 41 20.144 Z  M 12.339 22.278 C 15.542 22.278 15.542 23.885 15.542 24.415 C 15.542 24.943 15.542 26.549 12.339 26.549 C 9.135 26.549 9.135 24.943 9.135 24.415 C 9.135 23.885 9.135 22.278 12.339 22.278 Z  M 21.249 25.524 C 21.835 25.524 22.317 26.005 22.317 26.591 C 22.313 27.179 21.837 27.655 21.249 27.658 C 20.662 27.652 20.187 27.177 20.182 26.591 C 20.182 26.01 20.668 25.522 21.249 25.522 L 21.249 25.524 Z  M 22.111 32.133 C 22.342 32.108 22.552 32.118 22.686 32.133 C 23.209 32.195 24.791 32.401 24.411 35.582 C 24.035 38.764 22.43 38.559 21.906 38.499 C 21.383 38.436 19.807 38.272 20.182 35.089 C 20.464 32.703 21.423 32.205 22.112 32.133 L 22.111 32.133 Z " fill="rgb(0,0,0)"/></svg>