<?xml version="1.0" encoding="UTF-8" standalone="no"?><!-- Generator: Gravit.io --><svg xmlns="http://www.w3.org/2000/svg" xmlns:xlink="http://www.w3.org/1999/xlink" style="isolation:isolate" viewBox="0 0 48 48" width="48pt" height="48pt"><path d=" M 10.4 7 C 8.527 7 7 8.527 7 10.4 L 7 37.6 C 7 39.473 8.527 41 10.4 41 L 27.4 41 C 29.273 41 30.8 39.473 30.8 37.6 L 30.8 30.8 L 27.4 30.8 L 27.4 37.6 L 10.4 37.6 L 10.4 10.4 L 27.4 10.4 L 27.4 17.2 L 30.8 17.2 L 30.8 10.4 C 30.8 8.527 29.273 7 27.4 7 L 10.4 7 Z  M 34.2 18.9 L 34.2 22.3 L 17.2 22.3 L 17.2 25.7 L 34.2 25.7 L 34.2 29.1 L 41 24 L 34.2 18.9 Z " fill="rgb(0,0,0)"/></svg>