<?xml version="1.0" encoding="UTF-8" standalone="no"?><!-- Generator: Gravit.io --><svg xmlns="http://www.w3.org/2000/svg" xmlns:xlink="http://www.w3.org/1999/xlink" style="isolation:isolate" viewBox="0 0 48 48" width="48pt" height="48pt"><path d=" M 37.6 41 C 39.473 41 41 39.473 41 37.6 L 41 10.4 C 41 8.527 39.473 7 37.6 7 L 20.6 7 C 18.727 7 17.2 8.527 17.2 10.4 L 17.2 17.2 L 20.6 17.2 L 20.6 10.4 L 37.6 10.4 L 37.6 37.6 L 20.6 37.6 L 20.6 30.8 L 17.2 30.8 L 17.2 37.6 C 17.2 39.473 18.727 41 20.6 41 L 37.6 41 Z  M 13.8 29.1 L 13.8 25.7 L 30.8 25.7 L 30.8 22.3 L 13.8 22.3 L 13.8 18.9 L 7 24 L 13.8 29.1 Z " fill="rgb(0,0,0)"/></svg>