<?xml version="1.0" encoding="UTF-8" standalone="no"?><!-- Generator: Gravit.io --><svg xmlns="http://www.w3.org/2000/svg" xmlns:xlink="http://www.w3.org/1999/xlink" style="isolation:isolate" viewBox="0 0 48 48" width="48pt" height="48pt"><g><path d=" M 10.416 28.576 C 10.479 28.134 10.853 27.619 11.519 27.07 L 13.926 25.083 C 12.889 25.052 11.853 25.021 10.816 24.99 C 9.519 25.601 8.396 26.13 7.098 26.742 C 8.284 27.379 9.23 27.939 10.416 28.576 Z " fill-rule="evenodd" fill="rgb(55,53,53)"/><path d=" M 14.427 31.239 L 16.939 30.724 C 16.551 31.354 16.05 32.125 15.662 32.755 C 15.438 33.093 15.126 33.383 14.708 33.615 C 13.654 34.077 12.6 34.538 11.546 35 C 11.637 33.718 11.729 32.436 11.82 31.153 C 11.892 31.204 11.989 31.246 12.109 31.278 C 12.578 31.373 13.274 31.458 14.427 31.239 Z " fill-rule="evenodd" fill="rgb(55,53,53)"/><path d=" M 17.419 30.539 L 21.85 28.699 C 21.851 28.863 21.872 29.046 21.919 29.25 L 16.461 31.487 C 16.56 31.288 16.551 30.982 16.651 30.783 C 16.651 30.783 16.926 30.739 17.419 30.539 Z " fill-rule="evenodd" fill="rgb(55,53,53)"/><path d=" M 37.372 21.034 C 35.705 22.647 34.575 23.215 32.299 24.197 L 32.053 24.302 C 32.196 24.383 32.328 24.469 32.445 24.563 C 32.546 24.644 32.635 24.732 32.708 24.827 C 34.72 23.989 36.639 23.012 38.091 21.359 C 39.48 19.778 40.427 17.716 40.897 15.428 C 39.974 17.816 38.807 19.647 37.372 21.034 Z " fill-rule="evenodd" fill="rgb(55,53,53)"/><path d=" M 22.141 29.764 C 21.337 30.05 20.556 30.323 19.802 30.583 L 19.802 30.582 C 19.802 30.582 18.327 31.089 18.137 31.155 C 18.137 31.155 19.678 30.807 19.842 30.767 L 21.018 30.5 C 21.442 30.363 21.866 30.225 22.29 30.088 L 22.357 30.064 C 22.296 29.988 22.241 29.913 22.192 29.841 C 22.174 29.816 22.157 29.79 22.141 29.764 Z " fill-rule="evenodd" fill="rgb(55,53,53)"/><path d=" M 34.616 13.004 C 31.292 13.094 24.992 16.068 18.357 20.553 C 16.572 21.76 14.88 23.087 13.075 24.484 C 18.176 20.688 27.516 14.228 33.916 13.43 C 36.594 13.096 38.567 13.981 40.567 15.221 L 40.568 15.221 C 40.568 15.221 40.567 15.221 40.567 15.221 C 40.677 15.29 40.787 15.358 40.896 15.428 C 39.285 14.048 37.429 12.927 34.616 13.004 Z " fill-rule="evenodd" fill="rgb(55,53,53)"/><path d=" M 33.501 14.342 C 31.02 14.632 27.487 16.309 25.189 17.41 C 21.102 19.366 16.93 21.969 13.009 25.027 L 13.926 25.083 C 17.473 22.637 21.196 20.367 25.21 18.388 C 27.716 17.152 31.477 15.29 34.237 14.917 C 36.272 14.642 38.399 14.83 40.567 15.221 L 40.567 15.221 C 37.819 14.339 35.505 14.108 33.501 14.342 Z " fill-rule="evenodd" fill="rgb(55,53,53)"/><path d=" M 40.897 15.428 C 40.497 19.383 38.8 22.337 35.19 24.287 C 34.429 24.679 33.658 25.057 32.884 25.422 L 32.864 25.909 C 33.519 25.602 34.038 25.336 34.489 25.092 C 37.626 23.629 41.049 20.995 40.897 15.428 Z " fill-rule="evenodd" fill="rgb(55,53,53)"/><path d=" M 36.45 15.444 C 33.242 15.848 30.958 16.93 28.076 18.238 C 22.687 20.684 17.487 23.355 12.841 26.692 C 10.952 27.817 10.172 28.746 10.279 29.697 C 10.614 29.06 11.274 28.544 12.457 27.908 C 17.755 24.89 22.945 21.843 28.445 19.433 C 31.092 18.07 33.986 16.907 37.268 16.134 C 38.444 15.857 39.579 15.573 40.897 15.428 C 39.373 15.242 37.895 15.262 36.45 15.444 Z " fill-rule="evenodd" fill="rgb(55,53,53)"/><path d=" M 14.705 27.694 L 14.705 27.694 C 14.705 27.694 14.679 27.707 14.634 27.729 C 14.476 27.808 14.318 27.886 14.16 27.964 C 13.729 28.184 13.298 28.403 12.881 28.622 C 12.882 28.623 12.884 28.625 12.886 28.626 C 12.213 28.981 11.502 29.369 11.038 29.659 L 11.038 29.66 C 10.834 29.788 10.642 29.915 10.465 30.041 C 10.524 30.169 10.583 30.297 10.643 30.425 C 10.861 30.359 11.084 30.287 11.309 30.211 C 11.308 30.21 11.308 30.209 11.308 30.208 C 11.762 30.045 13.429 29.437 15.067 28.695 C 16.226 28.181 17.402 27.639 18.557 27.132 C 20.687 26.146 22.817 25.161 24.946 24.176 C 26.197 23.561 27.448 22.947 28.698 22.333 C 33.175 20.226 37.368 17.984 40.897 15.428 C 37.279 16.883 33.821 18.211 30.325 19.946 C 25.118 22.529 19.912 25.111 14.705 27.694 Z " fill-rule="evenodd" fill="rgb(55,53,53)"/><path d=" M 33.325 21.476 C 27.165 24.771 21.948 27.097 17.234 28.922 C 16.471 29.217 15.722 29.499 14.983 29.77 C 14.571 29.93 14.172 30.072 13.784 30.198 C 13.333 30.327 11.943 30.717 11.455 30.773 C 11.455 30.773 11.456 30.775 11.457 30.776 C 11.256 30.808 11.059 30.835 10.867 30.855 C 11.148 31.053 11.509 31.139 11.904 31.157 C 11.919 31.16 11.934 31.162 11.949 31.162 L 11.966 31.16 C 11.97 31.16 11.973 31.16 11.976 31.16 C 11.976 31.16 11.976 31.159 11.975 31.159 L 12.01 31.156 C 12.01 31.156 13.102 31.131 14.855 30.611 C 17.011 29.972 19.451 29.156 21.952 28.124 C 22.067 27.843 22.261 27.663 22.461 27.552 C 23.581 26.842 24.549 26.238 25.747 25.664 C 26.945 25.091 28.187 24.586 29.481 24.149 L 29.484 24.148 C 29.891 24.035 30.257 23.963 30.611 23.949 C 30.772 23.943 30.931 23.949 31.09 23.969 C 31.377 23.83 31.663 23.692 31.947 23.554 C 35.938 21.617 38.516 19.276 40.897 15.428 C 38.748 17.787 35.973 20.015 33.325 21.476 Z " fill-rule="evenodd" fill="rgb(55,53,53)"/><path d=" M 32.571 26.497 C 32.497 26.422 32.421 26.35 32.339 26.282 C 32.236 26.199 32.123 26.124 31.994 26.063 C 31.807 25.976 31.626 25.966 31.432 26.007 C 31.234 26.048 31.021 26.142 30.775 26.26 C 29.519 26.862 27.617 27.67 26.448 28.181 C 25.278 28.691 24.094 29.175 22.778 29.67 C 22.688 29.714 22.608 29.764 22.562 29.828 L 22.562 29.828 C 22.523 29.882 22.508 29.947 22.528 30.031 C 22.58 30.094 22.638 30.159 22.698 30.226 C 23.144 30.57 23.872 30.557 25.168 30.193 C 26.916 29.676 28.827 28.908 30.192 28.323 C 30.202 28.316 30.213 28.31 30.224 28.303 C 30.276 28.285 30.335 28.26 30.402 28.229 C 30.402 28.229 31.198 27.914 31.813 27.535 C 32.17 27.316 32.317 27.052 32.404 26.907 C 32.48 26.781 32.549 26.636 32.571 26.497 Z " fill-rule="evenodd" fill="rgb(55,53,53)"/><path d=" M 32.864 25.909 C 32.864 25.909 32.905 25.577 32.883 25.427 C 32.859 25.259 32.728 24.96 32.416 24.792 C 32.416 24.792 31.862 24.438 31.319 24.347 C 30.831 24.265 30.344 24.298 29.903 24.384 C 28.883 24.583 25.953 26.05 25.953 26.05 L 25.83 26.839 C 25.83 26.839 29.459 25.207 30.19 25.038 C 30.52 24.962 30.898 24.919 31.304 24.954 C 31.858 25.002 32.529 25.449 32.864 25.909 Z " fill-rule="evenodd" fill="rgb(55,53,53)"/></g></svg>