<?xml version="1.0" encoding="UTF-8" standalone="no"?><!-- Generator: Gravit.io --><svg xmlns="http://www.w3.org/2000/svg" xmlns:xlink="http://www.w3.org/1999/xlink" style="isolation:isolate" viewBox="0 0 48 48" width="48pt" height="48pt"><path d=" M 11.857 7 C 9.858 7 8.214 8.644 8.214 10.643 L 8.214 32.5 C 8.214 34.499 9.858 36.143 11.857 36.143 L 19.779 36.143 C 21.805 39.175 25.21 40.997 28.857 41 C 34.88 41 39.786 36.094 39.786 30.071 C 39.786 25.333 36.731 21.321 32.5 19.811 L 32.5 14.997 L 24.503 7 L 11.857 7 Z  M 11.857 9.429 L 22.786 9.429 L 22.786 16.714 L 30.071 16.714 L 30.071 19.264 C 29.668 19.221 29.272 19.143 28.857 19.143 C 22.834 19.143 17.929 24.049 17.929 30.071 C 17.929 31.354 18.188 32.57 18.596 33.714 L 11.857 33.714 C 11.534 33.719 11.222 33.592 10.993 33.364 C 10.765 33.135 10.638 32.823 10.643 32.5 L 10.643 10.643 C 10.643 9.96 11.175 9.429 11.857 9.429 Z  M 25.214 11.146 L 28.354 14.286 L 25.214 14.286 L 25.214 11.146 Z  M 28.857 21.571 C 33.566 21.571 37.357 25.362 37.357 30.071 C 37.357 34.78 33.566 38.571 28.857 38.571 C 26.601 38.577 24.436 37.683 22.841 36.088 C 21.246 34.492 20.352 32.327 20.357 30.071 C 20.357 25.362 24.148 21.571 28.857 21.571 Z  M 27.643 24 L 27.643 28.857 L 22.786 28.857 L 22.786 31.286 L 27.643 31.286 L 27.643 36.143 L 30.071 36.143 L 30.071 31.286 L 34.929 31.286 L 34.929 28.857 L 30.071 28.857 L 30.071 24 L 27.643 24 Z " fill="rgb(0,0,0)"/></svg>