<?xml version="1.0" encoding="UTF-8" standalone="no"?><!-- Generator: Gravit.io --><svg xmlns="http://www.w3.org/2000/svg" xmlns:xlink="http://www.w3.org/1999/xlink" style="isolation:isolate" viewBox="0 0 48 48" width="48pt" height="48pt"><path d=" M 10.481 10.211 C 8.577 10.211 7.033 11.754 7.033 13.658 L 7.033 34.342 C 7.031 35.727 7.859 36.979 9.135 37.52 C 9.148 37.527 9.174 37.513 9.188 37.52 C 9.383 37.601 9.572 37.694 9.781 37.736 C 10.01 37.789 10.226 37.789 10.481 37.789 L 34.612 37.789 C 35.103 37.789 35.588 37.708 36.013 37.52 C 37.378 36.995 38.578 35.769 38.921 34.342 L 41.4 24 C 41.856 22.095 40.665 20.553 38.759 20.553 L 13.928 20.553 L 13.928 18.829 L 38.059 18.829 L 38.059 17.105 C 38.059 15.201 36.516 13.658 34.612 13.658 L 22.546 13.658 L 19.099 10.211 L 10.481 10.211 Z " fill="rgb(0,0,0)"/></svg>