<?xml version="1.0" encoding="UTF-8" standalone="no"?><!-- Generator: Gravit.io --><svg xmlns="http://www.w3.org/2000/svg" xmlns:xlink="http://www.w3.org/1999/xlink" style="isolation:isolate" viewBox="0 0 48 48" width="48pt" height="48pt"><path d=" M 20.731 7 C 19.944 7 19.152 7.52 18.892 8.308 L 17.462 8.308 C 16.02 8.308 14.846 9.482 14.846 10.923 L 12.231 10.923 C 10.008 10.923 8.308 12.623 8.308 14.846 L 8.308 34.462 C 8.308 36.685 10.008 38.385 12.231 38.385 L 18.646 38.385 C 18.254 37.597 18.115 36.685 18.115 35.769 L 18.115 34.462 L 12.231 34.462 L 12.231 14.846 L 15.255 14.846 C 15.648 15.633 16.547 16.154 17.462 16.154 L 24 16.154 C 24.915 16.154 25.814 15.633 26.207 14.846 L 29.231 14.846 L 29.231 16.808 L 33.154 16.808 L 33.154 14.846 C 33.154 12.623 31.454 10.923 29.231 10.923 L 26.615 10.923 C 26.615 9.482 25.441 8.308 24 8.308 L 22.569 8.308 C 22.309 7.52 21.518 7 20.731 7 Z  M 17.462 10.923 L 24 10.923 L 24 13.538 L 17.462 13.538 L 17.462 10.923 Z  M 25.308 18.769 C 22.431 18.769 20.077 21.123 20.077 24 L 20.077 35.769 C 20.077 38.646 22.431 41 25.308 41 L 34.462 41 C 37.338 41 39.692 38.646 39.692 35.769 L 39.692 24 C 39.692 21.123 37.338 18.769 34.462 18.769 L 25.308 18.769 Z  M 25.308 21.385 L 34.462 21.385 C 35.903 21.385 37.077 22.559 37.077 24 L 37.077 35.769 C 37.077 37.21 35.903 38.385 34.462 38.385 L 25.308 38.385 C 23.867 38.385 22.692 37.21 22.692 35.769 L 22.692 24 C 22.692 22.559 23.867 21.385 25.308 21.385 Z  M 25.308 26.615 L 25.308 29.231 L 34.462 29.231 L 34.462 26.615 L 25.308 26.615 Z  M 25.308 31.846 L 25.308 34.462 L 34.462 34.462 L 34.462 31.846 L 25.308 31.846 Z " fill="rgb(0,0,0)"/></svg>