<?xml version="1.0" encoding="UTF-8" standalone="no"?><!-- Generator: Gravit.io --><svg xmlns="http://www.w3.org/2000/svg" xmlns:xlink="http://www.w3.org/1999/xlink" style="isolation:isolate" viewBox="0 0 48 48" width="48pt" height="48pt"><path d=" M 36.578 25.663 C 36.578 25.154 36.751 24.476 36.751 23.967 C 36.751 23.458 36.751 22.779 36.578 22.27 L 40.145 19.725 C 40.484 19.552 40.654 19.05 40.318 18.537 L 36.924 12.599 C 36.751 12.09 36.241 11.919 35.903 12.09 L 31.834 13.96 C 30.986 13.276 29.792 12.601 28.779 12.263 L 28.268 7.848 C 28.268 7.339 27.929 7 27.42 7 L 20.633 7 C 20.124 7 19.785 7.339 19.785 7.848 L 19.276 12.09 C 18.088 12.599 17.067 13.111 16.218 13.787 L 12.15 12.09 C 11.81 11.917 11.301 12.09 11.128 12.429 L 7.735 18.368 C 7.397 18.877 7.397 19.386 7.908 19.552 L 11.474 22.27 C 11.474 22.779 11.301 23.458 11.301 23.967 C 11.301 24.476 11.301 25.154 11.474 25.663 L 7.908 28.208 C 7.569 28.381 7.399 28.884 7.735 29.396 L 11.128 35.334 C 11.301 35.843 11.812 36.016 12.15 35.843 L 16.218 33.974 C 17.067 34.657 18.261 35.333 19.274 35.67 L 19.785 40.085 C 19.785 40.594 20.124 40.933 20.633 40.933 L 27.42 40.933 C 27.929 40.933 28.268 40.594 28.268 40.085 L 28.777 35.67 C 29.965 35.168 30.986 34.657 31.834 33.974 L 35.903 35.843 C 36.242 36.016 36.751 35.843 36.924 35.504 L 40.318 29.566 C 40.482 29.23 40.482 28.717 40.145 28.381 L 36.578 25.663 Z  M 24.026 30.753 C 20.294 30.753 17.24 27.699 17.24 23.967 C 17.24 20.234 20.294 17.18 24.026 17.18 C 27.759 17.18 30.813 20.234 30.813 23.967 C 30.813 27.699 27.759 30.753 24.026 30.753 Z " fill="rgb(0,0,0)"/></svg>