<?xml version="1.0" encoding="UTF-8" standalone="no"?><!-- Generator: Gravit.io --><svg xmlns="http://www.w3.org/2000/svg" xmlns:xlink="http://www.w3.org/1999/xlink" style="isolation:isolate" viewBox="0 0 48 48" width="48pt" height="48pt"><path d=" M 16.113 7 C 13.962 7 12.19 8.772 12.19 10.923 L 12.19 17.462 L 10.923 17.462 C 8.756 17.462 7 19.218 7 21.385 L 7 29.231 C 7 31.397 8.756 33.154 10.923 33.154 L 12.19 33.154 L 12.19 37.077 C 12.19 39.228 13.962 41 16.113 41 L 31.806 41 C 33.955 41 35.729 39.228 35.729 37.077 L 35.729 33.154 L 37.077 33.154 C 39.244 33.154 41 31.397 41 29.231 L 41 21.385 C 41 19.218 39.244 17.462 37.077 17.462 L 35.729 17.462 L 35.729 10.923 C 35.729 8.772 33.955 7 31.806 7 L 16.113 7 Z  M 16.113 9.615 L 31.806 9.615 C 32.541 9.615 33.113 10.188 33.113 10.923 L 33.113 17.462 L 14.806 17.462 L 14.806 10.923 C 14.806 10.187 15.377 9.615 16.113 9.615 Z  M 35.115 20.077 C 36.199 20.077 37.077 20.955 37.077 22.038 C 37.077 23.122 36.199 24 35.115 24 C 34.032 24 33.154 23.122 33.154 22.038 C 33.154 20.955 34.032 20.077 35.115 20.077 Z  M 14.806 26.615 L 33.113 26.615 L 33.113 37.077 C 33.113 37.813 32.541 38.385 31.806 38.385 L 16.113 38.385 C 15.377 38.385 14.806 37.812 14.806 37.077 L 14.806 26.615 Z  M 17.462 29.231 L 17.462 31.846 L 30.538 31.846 L 30.538 29.231 L 17.462 29.231 Z  M 17.462 33.154 L 17.462 35.769 L 26.615 35.769 L 26.615 33.154 L 17.462 33.154 Z " fill="rgb(0,0,0)"/></svg>