<?xml version="1.0" encoding="UTF-8" standalone="no"?><!-- Generator: Gravit.io --><svg xmlns="http://www.w3.org/2000/svg" xmlns:xlink="http://www.w3.org/1999/xlink" style="isolation:isolate" viewBox="0 0 48 48" width="48pt" height="48pt"><path d=" M 26.612 9.941 L 26.612 15.829 C 13.656 15.829 2.923 20.118 8.518 39.092 C 7.637 27.231 13.412 23.506 26.613 23.506 L 26.613 29.287 C 26.606 29.703 26.853 30.08 27.236 30.241 C 27.619 30.402 28.061 30.313 28.353 30.017 L 40.697 20.367 C 40.891 20.174 41 19.911 41 19.636 C 41 19.362 40.891 19.099 40.697 18.906 L 28.35 9.21 C 28.055 8.915 27.611 8.827 27.226 8.987 C 26.844 9.148 26.6 9.527 26.61 9.941 L 26.612 9.941 Z " fill="rgb(0,0,0)"/></svg>