<?xml version="1.0" encoding="UTF-8" standalone="no"?><!-- Generator: Gravit.io --><svg xmlns="http://www.w3.org/2000/svg" xmlns:xlink="http://www.w3.org/1999/xlink" style="isolation:isolate" viewBox="0 0 48 48" width="48pt" height="48pt"><path d=" M 10.778 7 C 8.696 7 7 8.696 7 10.778 L 7 37.222 C 7 39.304 8.696 41 10.778 41 L 37.222 41 C 39.304 41 41 39.304 41 37.222 L 41 12.667 L 35.333 7 L 10.778 7 Z  M 16.444 8.889 L 31.556 8.889 L 31.556 18.333 L 16.444 18.333 L 16.444 8.889 Z  M 25.889 10.778 L 25.889 16.444 L 29.667 16.444 L 29.667 10.778 L 25.889 10.778 Z  M 14.556 24 L 33.444 24 C 34.582 24 35.333 24.752 35.333 25.889 L 35.333 35.333 C 35.333 36.47 34.582 37.222 33.444 37.222 L 14.556 37.222 C 13.418 37.222 12.667 36.47 12.667 35.333 L 12.667 25.889 C 12.667 24.752 13.418 24 14.556 24 Z " fill="rgb(0,0,0)"/></svg>