<?xml version="1.0" encoding="UTF-8" standalone="no"?><!-- Generator: Gravit.io --><svg xmlns="http://www.w3.org/2000/svg" xmlns:xlink="http://www.w3.org/1999/xlink" style="isolation:isolate" viewBox="0 0 48 48" width="48pt" height="48pt"><path d=" M 33.291 6.997 C 32.996 7.022 32.744 7.208 32.547 7.491 L 24.417 18.841 C 24.021 19.414 24.382 20.621 25.779 22.018 C 27.179 23.418 28.509 23.938 29.081 23.546 L 40.514 15.457 C 41.086 15.065 41.169 14.374 40.679 13.888 L 34.157 7.327 C 33.93 7.096 33.614 6.976 33.291 6.997 Z  M 21.982 21.524 C 21.857 21.511 21.731 21.524 21.612 21.564 C 5.055 27.602 15.022 34.793 7 41.006 C 24.045 41.006 27.801 37.11 27.801 26.684 C 27.481 25.997 25.918 25.667 24.416 24.208 C 23.101 22.928 22.786 21.577 21.981 21.526 L 21.982 21.524 Z " fill="rgb(0,0,0)"/></svg>