<?xml version="1.0" encoding="UTF-8" standalone="no"?><!-- Generator: Gravit.io --><svg xmlns="http://www.w3.org/2000/svg" xmlns:xlink="http://www.w3.org/1999/xlink" style="isolation:isolate" viewBox="0 0 48 48" width="48pt" height="48pt"><path d=" M 39.549 40.906 C 39.494 40.945 39.432 40.972 39.37 40.999 C 39.219 41.04 39.048 41.029 38.91 40.947 L 17.787 29.245 L 17.735 31.727 C 17.729 31.959 17.593 32.168 17.383 32.267 C 17.173 32.366 16.926 32.338 16.743 32.195 L 13.191 29.34 L 8.832 30.655 C 8.608 30.731 8.362 30.659 8.209 30.489 C 8.057 30.318 8.003 30.079 8.091 29.855 L 9.699 25.596 L 7.107 21.855 C 6.977 21.67 6.964 21.418 7.077 21.208 C 7.19 20.998 7.402 20.882 7.64 20.895 L 12.191 21.108 L 14.944 17.481 C 14.87 17.206 14.997 16.917 15.249 16.784 C 15.501 16.652 15.81 16.712 15.995 16.929 C 16.179 17.145 16.189 17.46 16.019 17.688 L 17.205 22.073 L 21.502 23.573 C 21.718 23.65 21.875 23.85 21.902 24.075 C 21.93 24.3 21.832 24.532 21.627 24.659 L 19.55 26.019 L 40.683 37.714 C 40.98 37.881 41.088 38.244 40.922 38.541 L 39.729 40.698 C 39.687 40.777 39.625 40.853 39.549 40.906 L 39.549 40.906 Z  M 16.847 27.72 L 16.891 27.69 C 17.073 27.578 17.303 27.58 17.494 27.69 L 38.958 39.576 L 39.562 38.485 L 18.09 26.587 C 17.906 26.488 17.787 26.295 17.778 26.073 C 17.776 25.862 17.879 25.659 18.054 25.537 L 19.938 24.296 L 16.499 23.09 C 16.31 23.025 16.164 22.87 16.112 22.677 L 15.147 19.164 L 12.943 22.064 C 12.829 22.226 12.631 22.316 12.431 22.309 L 8.791 22.141 L 10.873 25.131 C 10.988 25.295 11.008 25.509 10.946 25.699 L 9.65 29.103 L 13.138 28.057 C 13.329 28.004 13.534 28.04 13.704 28.166 L 16.542 30.445 L 16.592 28.193 C 16.595 28.011 16.694 27.828 16.847 27.72 L 16.847 27.72 Z  M 28.696 20.514 C 28.619 20.567 28.517 20.607 28.428 20.62 L 25.87 20.948 L 24.692 23.242 C 24.59 23.444 24.375 23.579 24.145 23.577 C 23.915 23.575 23.701 23.432 23.603 23.223 L 22.5 20.884 L 19.947 20.475 C 19.724 20.436 19.531 20.277 19.455 20.053 C 19.38 19.829 19.451 19.583 19.622 19.431 L 21.494 17.661 L 21.107 15.112 C 21.072 14.876 21.17 14.644 21.355 14.513 C 21.541 14.383 21.793 14.37 22.003 14.483 L 24.268 15.714 L 26.569 14.555 C 26.776 14.451 27.025 14.474 27.21 14.614 C 27.396 14.754 27.485 14.988 27.44 15.216 L 26.967 17.749 L 28.792 19.582 C 28.955 19.745 29.009 19.984 28.94 20.212 C 28.88 20.335 28.805 20.437 28.696 20.514 Z  M 25.127 19.888 C 25.203 19.834 25.306 19.795 25.394 19.782 L 27.041 19.572 L 25.868 18.389 C 25.721 18.249 25.66 18.046 25.704 17.853 L 26.009 16.22 L 24.517 16.974 C 24.337 17.067 24.119 17.058 23.954 16.962 L 22.494 16.16 L 22.752 17.805 C 22.783 18.011 22.71 18.209 22.572 18.339 L 21.367 19.478 L 23.006 19.746 C 23.203 19.771 23.38 19.908 23.454 20.084 L 24.168 21.588 L 24.925 20.111 C 24.971 20.014 25.05 19.942 25.127 19.888 Z  M 22.463 12.839 C 22.387 12.893 22.284 12.933 22.195 12.946 L 19.638 13.273 L 18.46 15.568 C 18.357 15.77 18.142 15.905 17.912 15.903 C 17.683 15.901 17.468 15.758 17.371 15.549 L 16.267 13.21 L 13.725 12.793 C 13.502 12.754 13.309 12.595 13.234 12.371 C 13.158 12.147 13.23 11.901 13.4 11.749 L 15.272 9.979 L 14.885 7.43 C 14.85 7.194 14.948 6.962 15.134 6.832 C 15.319 6.701 15.571 6.688 15.781 6.801 L 18.046 8.032 L 20.347 6.874 C 20.548 6.765 20.801 6.8 20.989 6.929 C 21.174 7.076 21.268 7.303 21.218 7.534 L 20.746 10.067 L 22.57 11.9 C 22.733 12.063 22.787 12.302 22.719 12.53 C 22.648 12.661 22.561 12.77 22.463 12.839 L 22.463 12.839 Z  M 18.875 12.211 C 18.952 12.157 19.055 12.117 19.143 12.104 L 20.8 11.887 L 19.628 10.704 C 19.48 10.563 19.42 10.361 19.463 10.168 L 19.769 8.535 L 18.287 9.281 C 18.108 9.374 17.889 9.365 17.724 9.269 L 16.265 8.467 L 16.523 10.112 C 16.546 10.308 16.48 10.517 16.343 10.646 L 15.126 11.793 L 16.765 12.061 C 16.962 12.09 17.131 12.217 17.214 12.398 L 17.927 13.903 L 18.684 12.426 C 18.738 12.34 18.799 12.264 18.875 12.211 L 18.875 12.211 Z " fill="rgb(0,0,0)"/></svg>