<?xml version="1.0" encoding="UTF-8" standalone="no"?><!-- Generator: Gravit.io --><svg xmlns="http://www.w3.org/2000/svg" xmlns:xlink="http://www.w3.org/1999/xlink" style="isolation:isolate" viewBox="0 0 48 48" width="48pt" height="48pt"><path d=" M 28.31 7.002 C 27.072 7.002 25.841 7.526 24.905 8.515 L 8.411 25.908 C 7.508 26.86 7 28.152 7 29.499 C 7 30.846 7.508 32.138 8.411 33.09 L 15.381 40.496 C 15.696 40.816 16.115 40.997 16.553 41 L 40.918 41 L 40.918 37.409 L 26.82 37.409 L 39.589 23.944 C 40.492 22.992 41 21.701 41 20.354 C 41 19.007 40.492 17.715 39.589 16.763 L 31.715 8.515 C 30.815 7.554 29.59 7.009 28.31 7 L 28.31 7.002 Z  M 18.468 20.354 L 28.308 30.732 L 21.98 37.409 L 17.298 37.409 L 10.807 30.564 C 10.303 30.032 10.303 28.966 10.807 28.433 L 18.468 20.354 Z " fill="rgb(0,0,0)"/></svg>