<?xml version="1.0" encoding="UTF-8" standalone="no"?><!-- Generator: Gravit.io --><svg xmlns="http://www.w3.org/2000/svg" xmlns:xlink="http://www.w3.org/1999/xlink" style="isolation:isolate" viewBox="0 0 48 48" width="48pt" height="48pt"><path d=" M 22.111 18.333 L 25.889 18.333 L 25.889 22.111 L 22.111 22.111 L 22.111 18.333 Z  M 18.333 22.111 L 22.111 22.111 L 22.111 25.889 L 18.333 25.889 L 18.333 22.111 Z  M 25.889 22.111 L 29.667 22.111 L 29.667 25.889 L 25.889 25.889 L 25.889 22.111 Z  M 29.667 18.333 L 33.444 18.333 L 33.444 22.111 L 29.667 22.111 L 29.667 18.333 Z  M 14.556 18.333 L 18.333 18.333 L 18.333 22.111 L 14.556 22.111 L 14.556 18.333 Z  M 37.222 7 L 10.778 7 C 8.7 7 7 8.7 7 10.778 L 7 37.222 C 7 39.3 8.7 41 10.778 41 L 37.222 41 C 39.3 41 41 39.3 41 37.222 L 41 10.778 C 41 8.7 39.3 7 37.222 7 Z  M 18.333 35.333 L 14.556 35.333 L 14.556 31.556 L 18.333 31.556 L 18.333 35.333 Z  M 25.889 35.333 L 22.111 35.333 L 22.111 31.556 L 25.889 31.556 L 25.889 35.333 Z  M 33.444 35.333 L 29.667 35.333 L 29.667 31.556 L 33.444 31.556 L 33.444 35.333 Z  M 37.222 22.111 L 33.444 22.111 L 33.444 25.889 L 37.222 25.889 L 37.222 29.667 L 33.444 29.667 L 33.444 25.889 L 29.667 25.889 L 29.667 29.667 L 25.889 29.667 L 25.889 25.889 L 22.111 25.889 L 22.111 29.667 L 18.333 29.667 L 18.333 25.889 L 14.556 25.889 L 14.556 29.667 L 10.778 29.667 L 10.778 25.889 L 14.556 25.889 L 14.556 22.111 L 10.778 22.111 L 10.778 10.778 L 37.222 10.778 L 37.222 22.111 Z " fill="rgb(0,0,0)"/></svg>