<?xml version="1.0" encoding="UTF-8" standalone="no"?><!-- Generator: Gravit.io --><svg xmlns="http://www.w3.org/2000/svg" xmlns:xlink="http://www.w3.org/1999/xlink" style="isolation:isolate" viewBox="0 0 48 48" width="48pt" height="48pt"><path d=" M 38.941 7.007 C 37.71 6.987 36.178 7.777 34.626 8.691 L 39.31 13.375 C 40.639 11.12 41.707 8.873 40.418 7.584 C 40.014 7.18 39.501 7.015 38.941 7.007 Z  M 32.25 7.907 C 30.664 7.979 28.105 8.591 25.49 11.207 C 22.816 13.877 21.645 16.058 20.875 17.505 C 20.503 18.206 20.203 18.748 19.883 19.097 C 19.268 19.766 18.427 19.478 18.337 19.444 C 18.157 19.367 17.953 19.365 17.771 19.438 C 17.589 19.512 17.444 19.655 17.368 19.836 C 17.291 20.016 17.289 20.22 17.363 20.402 C 17.436 20.584 17.579 20.729 17.76 20.805 C 17.798 20.819 18.279 21.012 18.914 21.012 C 19.268 21.012 19.667 20.94 20.067 20.759 C 20.608 20.184 21.154 19.615 21.706 19.051 C 21.858 18.786 21.999 18.512 22.167 18.197 C 22.94 16.744 24.01 14.76 26.528 12.245 C 28.921 9.853 31.192 9.366 32.434 9.337 C 32.616 9.193 32.8 9.081 32.942 8.968 L 33.449 8.553 L 34.073 8.16 C 34.003 8.109 33.946 8.048 33.865 8.022 C 33.805 8.002 33.201 7.864 32.25 7.907 Z  M 33.404 9.546 C 29.879 12.315 26.52 15.289 23.344 18.451 C 18.682 23.112 13.402 29.305 11.853 31.142 L 16.859 36.148 C 18.697 34.602 24.889 29.318 29.55 24.658 C 32.713 21.482 35.687 18.123 38.456 14.598 L 33.404 9.546 Z  M 11.046 32.434 C 8.912 35.654 8.379 37.884 8.232 38.755 C 8.232 38.758 8.209 38.752 8.209 38.755 L 7.216 39.725 C 6.928 40.013 6.928 40.497 7.216 40.786 C 7.36 40.93 7.556 40.993 7.747 40.993 C 7.937 40.993 8.133 40.93 8.278 40.786 L 9.246 39.793 C 9.249 39.793 9.243 39.77 9.246 39.77 C 10.118 39.623 12.35 39.09 15.569 36.955 L 11.046 32.434 Z " fill="rgb(0,0,0)"/></svg>