<?xml version="1.0" encoding="UTF-8" standalone="no"?><!-- Generator: Gravit.io --><svg xmlns="http://www.w3.org/2000/svg" xmlns:xlink="http://www.w3.org/1999/xlink" style="isolation:isolate" viewBox="0 0 48 48" width="48pt" height="48pt"><g><g><path d=" M 25.003 7 L 18.272 7 L 18.272 7 L 18.272 8.994 L 25.003 8.994 L 25.003 7 Z  M 27.994 7 L 30.651 7 C 32.147 7 33.583 7.598 34.64 8.655 C 35.697 9.712 36.275 11.148 36.275 12.644 L 36.275 15.286 L 36.275 15.286 L 34.281 15.286 L 34.281 12.644 C 34.281 11.666 33.902 10.749 33.224 10.051 C 32.546 9.373 31.608 8.994 30.651 8.994 L 27.994 8.994 L 27.994 7 Z  M 25.003 36.295 L 18.272 36.295 L 18.272 36.295 L 18.272 34.301 L 25.003 34.301 L 25.003 36.295 Z  M 27.994 36.295 L 30.651 36.295 C 32.147 36.295 33.583 35.697 34.64 34.64 C 35.697 33.583 36.275 32.147 36.275 30.651 L 36.275 27.999 L 36.275 27.999 L 36.275 27.999 L 34.281 27.999 L 34.281 30.651 C 34.281 31.608 33.902 32.546 33.224 33.224 C 32.546 33.902 31.608 34.301 30.651 34.301 L 27.994 34.301 L 27.994 36.295 Z  M 15.281 7 L 12.624 7 L 12.624 7 C 11.128 7 9.692 7.598 8.635 8.655 C 7.578 9.712 7 11.148 7 12.644 L 7 15.286 L 8.994 15.286 L 8.994 12.644 C 8.994 11.666 9.373 10.749 10.051 10.051 C 10.729 9.373 11.666 8.994 12.624 8.994 L 12.624 8.994 L 15.281 8.994 L 15.281 7 L 15.281 7 Z  M 15.281 36.295 L 12.624 36.295 C 11.128 36.295 9.692 35.697 8.635 34.64 C 7.578 33.583 7 32.147 7 30.651 L 7 27.999 L 8.994 27.999 L 8.994 30.651 C 8.994 31.608 9.373 32.546 10.051 33.224 C 10.729 33.902 11.666 34.301 12.624 34.301 L 15.281 34.301 L 15.281 36.295 L 15.281 36.295 Z  M 36.275 18.277 L 36.275 25.008 L 36.275 25.008 L 34.281 25.008 L 34.281 18.277 L 36.275 18.277 L 36.275 18.277 L 36.275 18.277 Z  M 7 18.277 L 7 25.008 L 8.994 25.008 L 8.994 18.277 L 7 18.277 L 7 18.277 L 7 18.277 Z " fill-rule="evenodd" fill="rgb(0,0,0)"/><polygon points="41,41,34.864,41,37.932,35.686" fill="rgb(0,0,0)"/></g></g></svg>